<svg id="Layer_1" data-name="Layer 1" xmlns="http://www.w3.org/2000/svg" viewBox="0 0 1296 1728"><defs><style>.cls-1{fill:#010101;}.cls-2{fill:#020202;}.cls-3{fill:#0d0d0d;}.cls-4{fill:#111;}.cls-5{fill:#f4f4f4;}.cls-6{fill:#141414;}.cls-7{fill:#272727;}.cls-8{fill:#303030;}.cls-9{fill:#202020;}.cls-10{fill:#f1f1f1;}.cls-11{fill:#ebebeb;}.cls-12{fill:#2b2b2b;}.cls-13{fill:#919191;}.cls-14{fill:#f2f2f2;}.cls-15{fill:#494949;}.cls-16{fill:#414141;}.cls-17{fill:#474747;}.cls-18{fill:#f3f3f3;}.cls-19{fill:#e5e5e5;}.cls-20{fill:#2e2e2e;}.cls-21{fill:#e1e1e1;}.cls-22{fill:#444;}.cls-23{fill:#b1b1b1;}.cls-24{fill:#e6e6e6;}.cls-25{fill:#090909;}.cls-26{fill:#0b0b0b;}.cls-27{fill:#0f0f0f;}</style></defs><title>Artboard 1</title><path d="M814.65,1631.1l-11.16-7.84c-.23,3.64-.42,6.53-.65,10.2-7.11-5.33-8.32-.75-10,4.54-1.85,5.72-.11,11.55-1.59,17.77-3.61-1.38-7.14-2.65-10.61-4.09-4-1.65-7.7-4.37-10.38,2.23-1.78,4.38-4.35-.08-5.52-1-4.72-3.92-8-3.42-12.12,1.22-10,11.13-25.22,11-37.87,16.53-2.24,1-3.16-1.71-4.36-3.07-3.13-3.54-6.55-6.82-10.76-8.91-3-1.5-6.76-4.8-9.77-2-2.76,2.61,2.19,5.43,2.14,9.65-5-2.66-9.58-4.81-13.83-7.54-3.6-2.31-5.47-1.49-6.74,2.28-1.51,4.44-2.8,9.68-6.47,12.18-4.17,2.84-6.69-4.75-12-4.07,2,8.87-3.09,11.38-10.56,11.64-6.59.23-10.1,4.13-12.4,10-1.19,3-1.78,7.53-6.84,6.57-6.3-1.2-9.59,2.16-12.26,7.14a89.27,89.27,0,0,1-5.12,7.49c-4.83,7.09-9.6,12.33-20,12.63-8.83.27-17.35,4.71-24.92-3.27-.41-.42-2-.58-2.12-.32-5.47,8.53-9.74,2.25-15.4-.22-5.1-2.23-11.85-.4-15.87,4.33-3,3.49-5.34,3.91-7.68.5-4.14-6.07-10-5.66-16.1-5.43-7.67.3-15.4.62-16.24-10.18-.18-2.41-1.92-3.08-4.2-2.55a37.2,37.2,0,0,1-6.36,1.3c-14.75.74-15,.75-17.82-13.35-.89-4.38-2-5.5-6.38-4-7,2.45-13.54,5.59-19.3,11.28-2.72-6.43-1.54-12.53-2.31-18.45-4,.56-4.5,6.14-9.06,5-5.5-1.42-10.83-2.6-9.42-10.33a28.61,28.61,0,0,0,.09-6.61c-.09-1.52.61-3.49-1.23-4.39s-3.08.73-4.32,1.65c-1.75,1.3-3.29,2.87-5,4.37-5-10-5-10-19.72-6.61,5.58-13.69-11.09-21.78-6.36-36-5.5,1.59-7.09,6.54-11,8.27-1.12-2.51.42-4.49.8-6.59,2.14-11.63,2.2-11.49-9.86-10.58-4.4.33-8.25,2.25-13.3,4.63,2.09-15.54,4.7-29.45,9.49-43.21-8.14-2.47-14.69-.36-20.67,7.72.65-9.86,4.16-16.83,5.59-24.68-5.34.45-8.15,4.48-11.67,7.1-2.16-2.52-2-5.3-2.4-8-.35-2.54,1.45-6.07-1.61-7.41-3.24-1.41-6.46.46-9.17,2.49-11.12,8.35-12.46,7.76-16.46-6.23-3.36-11.76-4-22.64,6-32,4.86-4.58,2.81-10.09-.08-15.15-4.05-7.08-10-12.47-16.26-17.4-3.14-2.48-3.94-4.57-2.29-8.25s2.22-8,4-11.67c9.23-18.77,7.29-37.3-.6-55.83-.86-2-1.31-4.23-2.31-6.17-13.61-26.67-11-54.18-4.36-81.92-2.09-1.76-2.31,1.06-3.52,1.44-3,2.57-4.32,6.29-7.18,11-4.19-16.3-10.25-31.06-6.31-47.09,1.48-6-1.08-8-5.82-7.81-5.17.22-5.72-2.15-5.74-6.32-.08-13.48-2-26.95.23-40.44.38-2.27,1-5.58-1.83-6.58s-4.2,2.06-5.65,3.92c-2.19,2.8-4.07,5.83-6.62,9.56-2.25-6.88-.2-12.65,2.08-18.19s2.86-11.37-1.37-15.5c-8.64-8.43-10.5-19.55-13.88-30.17-.74-2.33-1.62-4.61-2.8-7.92-1.44,3.46-2.47,6-3.78,9.11-4.36-7.42-5.94-14.55-3.5-22a12.45,12.45,0,0,0-1-10.31c-9.6-18-13.93-36.84-9.69-57.26.57-2.74,2.78-7.62-3.66-7.89-.44,0-1.08-2.36-1.12-3.64-.39-12.4-.85-24.81,3.77-36.73,2.08-5.37,4.93-11-2.21-15.13-2.08-1.21-.55-2.8-.2-4.29,2-8.59,4.28-17.17,9.31-24.5,3.88-5.65,2.7-10-2.47-13.26-4.17-2.59-4.93-5.93-4.92-10.32,0-6.12.28-12.25,2.58-17.88,13-31.83,20.06-65.71,33.65-97.35,3.3-7.68,3.9-16.09,4.25-24.29,1-23,8.92-44.78,11.72-67.44,2.49-20.16.09-40.18-2.29-60.17-6.86-3.48-6-10.49-7.55-16.42-.31-1.21-1.22-2.13-2.34-1.43-7.71,4.83-6.19-1.75-7-5.55a136.11,136.11,0,0,1-2.46-27.1c0-4.5-1-7.93-6.47-10-6.69-2.5-9.42-8.6-8.16-16.18,1.89-11.4,4.66-22.78,3.83-34.41-.3-4.35,2-11.35-6.93-10.71-1.95.14-1-2.11-1.24-3.26-6.24-33.42,4.52-62.93,23.43-89.27a193.47,193.47,0,0,0,17.48-30.3c1.68-3.51,1.47-5.5-2.24-7.81-14.5-9-28.44-18.93-43.17-27.54-7.49-4.39-16.36-6.34-24.31-10-12.24-5.69-24.34-11.8-32.26-23.52,0-3.52-2.45-4.19-5.22-4.49-34.74-29.26-63-63.05-74.78-108.16-2.22-8.46-.69-9.94,7.83-7.84,10.24,2.53,19.14,8.33,28.86,12.13,2.48-.56,4.1.51,5.16,2.69,50.82,28.77,100.32,59.7,148.8,92.26a57.24,57.24,0,0,0,14.19,6.5c5.7,1.86,9.85.93,13.09-5.78,17.43-36.16,40.42-69.15,60.07-104,13.6-24.17,24.7-49.71,40.51-72.71,19.06-27.72,38.51-55.12,60.18-80.89,8.52-10.14,15.36-21.49,22-32.92,19.6-33.56,44.94-61.38,81-77.46,17.49-7.8,36.55-7.21,55.3-5.44,52.77,5,94.86,30.64,132,67,28.4,27.74,58.29,53.93,87.3,81,5,4.63,9.83,6.5,16.76,6.54,28.82.14,55.63,9.78,82.37,19.19a56.06,56.06,0,0,0,18.52,3.25c32.27.33,64.37,4.48,96.66,4.53,3.49,0,6.09,2.37,8.87,4,22.46,13.6,43.13,29.61,62.7,47,6.45,5.75,9.11,13.86,10.8,21.91A269.93,269.93,0,0,1,1127.07,369c-2.47,13.4-9.54,26.2-14.31,39.37-12.55,34.61-18.5,70.61-24,106.79-6.57,43.07-22,84-31.29,126.44-.59,2.69-1.19,5.38-2,8-3.22,10.63-4.59,20.67.08,31.86a44,44,0,0,1-.93,36.3c-5,10.25-4.56,19.3.19,29,1.57,3.21,4,6.62-3,7.7-4.32.66-4.48,6.32-5.15,10.41-.76,4.6,2.88,5.35,5.78,6.7,45.17,21,89.95,42.83,131.94,69.86,5.09,3.28,9.71,7.37,15,10.23,21.08,11.36,25,30.49,24.31,52-.25,8.11-3.46,13.25-11.78,15.43-34.45,9-69.4,12.86-104.83,9-69.14-7.54-133.62-31.31-197-58.34-112.71-48.1-218.69-108.74-322.61-173.31-59.62-37-114-81.15-170.12-122.91-3.94-2.93-7.89-5.84-12.34-9.13C396.94,591,388.86,617,377.71,641.78c-9.14,20.36-19.69,39.47-35.32,56.27-12.18,13.08-19.94,30.21-27.82,46.61-.44,2.19-.41,4.68-3.28,5.4-1.82.55-1.42,2.05-1.46,3.37-.93.9-.36,2.72-2,3.21a322.57,322.57,0,0,0-24,55.51c-3.88,12-2,22.76,4.94,32.91,2.58,3.8,4.69,7.33,1.46,12-1.45,2.08-.56,4.82.42,7.17,1.42,3.38,2.5,6.73.29,10.24-.66,1-1.68,3.2.29,3.18,8.5-.1,5.45,6.29,5.13,9.87-.83,9.25,1.32,17.81,5.08,25.88,3.29,7.07,2.82,13.74.82,20.84-1.81,6.45-1.61,6.51,6.18,4.94-3.5,9.43,4.29,18.27,0,27.58-.6,1.29.44,2.08,1.52,2.44,4.88,1.62,5.29,4.36,2.83,8.62-2,3.49,1.91,4.69,3.62,6.35,3.77,3.69,3.12,8.15,2.55,12.42-.49,3.65-4.37.86-6.31,2.57.58,6.33,8.51,9.57,8.4,15.24-.18,8.8,9.3,12,9.61,20,0,.58,1.65,1.61,2.47,1.56,4.41-.3,4.51,2.09,3.08,5-3.52,7.15-.44,12,5.17,16.21,2.74,2,5.06,4.7,4.17,8.37-1.77,7.28.23,13.17,3.11,20.18,5,12.15,5.84,25.71,3.38,39-.66,3.59-2.12,6.91,1.54,9.72a2.75,2.75,0,0,1,.94,2.19c-2.16,13.93,8.82,20.75,16,29.62,1.2,1.5,3.31,2.62,3.83,4.27,4.84,15.61,19.4,15.67,31.36,19.78,2.89,1,6,.15,9-.52,6.42-1.45,12.67-3.88,19.42-3.61.81,0,2,0,2.38-.49,6.36-8.11,17.83-8.55,24.37-16.34.52-.61,1.26-1.62,1.79-1.55,11.07,1.38,21.48-7.7,32.93-1.8,4.21,2.18,8.58,3.32,11.12-3.49,1.82-4.89,6.67-2.45,10-1.15,20.19,7.92,32.43,7.62,53.84-2a77.75,77.75,0,0,1-14.53-40.53c-.3-5-2.71-4.91-6.64-3.24-6.33,2.7-11.37,7.34-17.76,10.17,19.29-21.86,36.77-45.58,64.24-58.74-6.33,9.48-13,18.76-18.91,28.51-6,10-10.59,20.6-10.59,32.6,0,13.19,4.53,19.56,17,23.72,12,4,24.12,8.15,34.39,15.74,7,5.14,14.88,9.56,15.77,20.44.31,3.87,6,7.57,9.72,10.85,20.54,18.23,45.7,24.81,71.14,2.74,11.54-10,24.75-9.65,39.35-5.5,8,2.26,11.22,6.58,16.3,11.84s9.89,10.43,13.15,17c.44.89,1.38,2.21,2.09,2.21,9.28,0,13.31,6.35,16.89,13.43.79,1.55,2.25,2,4.14,2.06,7.56.18,14.77-.53,21.21-5.13,5.22-3.72,10.9-6.23,17.6-6.12,7.28.12,12.3-3.55,15.94-9.87,5-8.74,9.16-18.34,19.28-22.94a7,7,0,0,0,3-3.79c5.91-16.12,12.26-32.06,21.08-47.44.6,14.45,1.71,29-2.36,43.12-2.18,7.54-6.53,20.8-6.61,28.21,0,.46.37,1.1.17,1.37-7.64,10.69-10.19,23.25-12.94,35.69-.94,4.26-4.13,5-7.35,5.33-3.74.43-4.54,1.54-3.23,5.25a36.57,36.57,0,0,1,2.22,12.11c0,3.2,3.37,10.28-5.61,7.46-1.59-.5-2,1.43-1.94,2.87,0,2.76,0,5.52,0,8.28.09,10.39.1,10.39-10.48,7v23.48c-4.93.27-7.06-4.11-11-4.67-.24,1-.74,1.84-.54,2.44,4.78,14.15-1.25,28.25-.19,42.4.33,4.42.5,8.77,2.07,12.94.38,1,1.46,2.35,1.14,3-5.85,12.27,5.23,26-4.28,37.85-2.06-2.73-4.7-5.86-6.93-9.26-2-3-3.59-3.79-7.22-1.71-5.84,3.33-7.12,5.37-1.71,11.06,6.32,6.63,10.85,15,16.81,23.52l-11.39.82c2.5,4.22.39,9.1,3.44,12.83,3.09,3.93,4.61,8.66,6.69,13.1,4.28,7.63,8.6,15.24,12.83,22.91,1.46,2.64,2.82,5.39,2,8.6-1,1-3.32-.41-3.74,1.86,1.32,6.16,2.89,12.29,3.86,18.5.45,2.85,5.89,8.33-3.28,7.8-2.29-.14-.77,2.65-.22,3.94,6.58,15.52,6.4,32.2,7.93,48.52a32.7,32.7,0,0,0,5.37,16c2.12,3.12,3.89,6.48,6.33,10.59a51.23,51.23,0,0,1-24.18-9.47c-6.47-4.59-8.52-3.91-10.63,3.92-1.34,5-1.93,10.1-3.06,16.29L822.12,1604c-5.06,7.8-5.39,15.57-4,23.62C818.72,1630.53,817.41,1631.55,814.65,1631.1Z"/><path d="M451.15,855.19c.05-3.59,1.74-6.41,3.7-9,14-18.59,30.37-34,53.74-40.14,9.17-2.41,17.4-8.59,27.62-6.77,1.62.29,4.17-.23,4.76.65,5.25,7.78,14.86,7.94,21.67,12.84,4.81,3.46,9.59,6,15.92,5.33s9.19,5.37,13.66,8.29,7.45,8.41,14,3.8c2.64-1.84,4.38,1.61,5.91,3.26,6.24,6.74,12.92,12.25,22.22,14.82,10,2.79,12.33,12.27,14.79,21,.55,2-.87,4.78,1.89,5.79,8.62,3.18,7,10.14,4.56,15.62-3.06,6.8-6.81,14.53-16.67,13.41-13.51-1.54-26.1-2.44-36.23-15.43-8.45-10.85-19.64-22.28-36.47-21.16-19.74-12.15-43.8-5.38-64.26-14.69-5.59-2.54-11.94-1.77-18-1.08-10.12,1.16-20.23,2.44-30.35,3.63A12.55,12.55,0,0,1,451.15,855.19Z"/><path d="M800.88,929c10.58-9.83,20.27-17.53,34.09-17.12,2.44.07,5.41.93,7-1.44,4.81-7.38,12.13-6.31,19.2-6.19,3.34.06,6.66.46,7.92-3.86.42-1.42.8-2.88,3.36-1.89,9.74,3.76,19.36,3.32,29.15-.72,7.36-3,15.26-.68,22.87-.13,20,1.44,40.55,22,39.93,39.47-.38,10.78-7.75,18.1-18.24,16.5-19.78-3-40-4.44-58.48-13.19C860.57,927.6,832.05,926.22,800.88,929Z"/><path d="M223.79,821.34c-4.45-7.53-7.67-15.69-13.1-22.76-4.31-5.63-4.7-13-3.85-19.82,1.54-12.53,3.48-25,5.73-37.46a28.25,28.25,0,0,1,5.35-11.93c2.63-3.47,6-6.15,10.4-5.61,9.05,1.11,13.12,8.2,16.92,15.33,3.22,6,3.72,11.92-1,17.64-1.68,2-4.74,3.82-4,6.82,2.6,11.33-2.69,19.38-9.26,28-5.59,7.3-5.68,17-5.26,26.19C226.07,819.43,227.08,821.52,223.79,821.34Z"/><path class="cls-1" d="M559.66,883.22c-3.6-.23-5.51-3.48-8.47-4.78-3.43-1.51-7.3-2.1-9.66,1.51-2.58,3.95,1.14,5.8,3.67,7.77,7.57,5.91,7.45,8-1.16,12.67-9.16,5-19.24,5.26-28.92,3.25-7.88-1.64-11.32-9-11.52-16.41-.25-9.53-4.49-10.9-12.34-8.57-2.32.69-4.9.57-7.36.82-1.66.57-3.48,1.47-3.42-1.62,27.29-13.61,54.25-12.29,80.95,1.72C562.07,881.39,561.13,882.43,559.66,883.22Z"/><path class="cls-1" d="M865.85,942.36c-3.4-1-6.75-2.49-10.22-2.9-3.3-.38-6.78.49-8.1,4.26-1.49,4.23,2.21,5,4.72,6.38,2.75,1.55,7,1.76,7,5.9,0,3.85-3.83,5.11-6.54,6.77-13.09,8-22.55,7.41-34.27-.6-5.17-3.54-5.89-9.12-7.89-13.84-2.55-6-6-7-11.47-5.67-3.32.8-6.66,2.1-11,.53,27.22-14.51,54.07-14.17,81.29-2.58C869.53,943.85,867.65,943,865.85,942.36Z"/><path class="cls-2" d="M177,734c-7.82-20.41,2-39.14,2.91-58.44.66-13.3,6.15-24.93,11.66-36.63,1.69-3.59,3.73-6.09,8.2-4.76s8,2.85,3,8c-6.17,6.32-7.34,13.76-6.88,22.66,1,19.67-3.46,38.79-9.24,57.51A19.91,19.91,0,0,1,177,734Z"/><path class="cls-3" d="M759.81,1124.49c5.08,23.67,10.34,47.29,21.1,69.22-18.09-18.85-20.44-43.08-22.72-67.32C757.53,1124.73,758.28,1124.28,759.81,1124.49Z"/><path class="cls-4" d="M637.85,972.43c-.49,11-7.24,18.92-13.54,27a2,2,0,0,1-2.82.52c-1.3-.89-.49-2.06.07-2.82,8.45-11.56,12.52-24.89,15.32-39,3.55,1.24,2.11,3.65,2.17,5.56C637.64,966.5,639.23,969.67,637.85,972.43Z"/><path class="cls-5" d="M843,1471.92c-3.51-3.72-7.54-7.16-6.69-13.1C846.12,1459.31,843.33,1466.24,843,1471.92Z"/><path class="cls-6" d="M559.66,883.22l1.77-3.64a43.75,43.75,0,0,1,13.31,8c0,2.87-1.46,2.75-3.41,1.7Z"/><path class="cls-7" d="M865.85,942.36c1.26-.43,2.86-.19,3.56-1.75,3.83.61,7.36,1.85,9.92,5,.45.28.62.56.48.86s-.27.47-.42.47C874.34,947,870.17,944.47,865.85,942.36Z"/><path class="cls-4" d="M147.45,390.93c1.88-.95,2.77-4.56,6-1.7s.26,4.24-.79,6.19A11.86,11.86,0,0,1,147.45,390.93Z"/><path class="cls-8" d="M814.65,1631.1c1.8-.53,2.72-1.93,3.51-3.48q2.72,4.31,5.45,8.61A13.27,13.27,0,0,1,814.65,1631.1Z"/><path class="cls-9" d="M795.78,1219.23c-6.54-2.18-9.53-5.71-13-10.64C788.71,1210.46,792.06,1213.54,795.78,1219.23Z"/><path class="cls-10" d="M114.52,289.75a8.32,8.32,0,0,1-5.16-2.69c1.68-2.25,3.78-4.7,6.59-2.66S114.7,287.83,114.52,289.75Z"/><path class="cls-11" d="M516.09,1143.89c-.65-3.15.37-5,2.82-6,1-.36,2.39.12,2.17,1.49C520.67,1142,518.85,1143.23,516.09,1143.89Z"/><path class="cls-12" d="M571.33,889.28c1.33-.2,2.73-.22,3.41-1.7,2.59,1.56,6,2.32,6.73,6.94C577.15,893.88,574.32,891.41,571.33,889.28Z"/><path class="cls-5" d="M840.89,1447.89c2.49,4.45,4,7.3,3.35,12.07C842.14,1456,840.86,1453.12,840.89,1447.89Z"/><path class="cls-13" d="M756.67,1106.41c.38,3.06.76,6.13,1.28,10.27-4.21-3.6-2.55-7.19-2.54-10.46C755.94,1105.54,756.36,1105.61,756.67,1106.41Z"/><path class="cls-5" d="M573.83,694.59a15.9,15.9,0,0,1-2.37,1.56,1.48,1.48,0,0,1-2.28-1.34c0-.76,1.08-1.78,1.9-2.11C572.2,692.25,573.08,693.1,573.83,694.59Z"/><path class="cls-14" d="M311.29,750.06l3.28-5.4c.51,1.7,2.32,3.19,1,5.2S312.73,750.48,311.29,750.06Z"/><path class="cls-14" d="M307.87,756.64c.66-1.07,1.31-2.14,2-3.21.73,1.87,4.67-.17,3.93,2.52C312.74,759.67,309.85,756.05,307.87,756.64Z"/><path class="cls-15" d="M223.79,821.34l1.93-3.65c1.37,2.49,1.45,5.17,1.49,8.66C224.57,825.1,223.8,823.5,223.79,821.34Z"/><path class="cls-16" d="M879.39,946.93a1.71,1.71,0,0,1-.06-1.33c2.89.17,5.51.78,7.42,5.68C883.42,949.21,880.59,949.94,879.39,946.93Z"/><path class="cls-17" d="M480.48,877.86l3.42,1.62c-2.33,1.74-4.95,1.67-7.79,1.39C476.92,878.6,478.68,878.19,480.48,877.86Z"/><path class="cls-18" d="M814.16,1222.59c2.75.18,3.9,1.48,4.55,3.87C816,1226.28,814.83,1225,814.16,1222.59Z"/><path class="cls-19" d="M854.06,1505.29a3.87,3.87,0,0,1-.7-5l4.44,3.13C857,1505,855.56,1505.17,854.06,1505.29Z"/><path class="cls-10" d="M814.26,962.74c-.63.69-1,1.54-1.61,1.68a1.43,1.43,0,0,1-1.86-1.68,2.12,2.12,0,0,1,1.55-1.39C812.9,961.33,813.49,962.15,814.26,962.74Z"/><path class="cls-20" d="M637.85,972.43c-.31-3-1-6,1.2-8.68C639.24,966.73,639.74,969.74,637.85,972.43Z"/><path class="cls-21" d="M756.67,1106.41a11,11,0,0,0-1.26-.19,2.63,2.63,0,0,1-1.57-3.2,1.29,1.29,0,0,1,1.12-.59C756.7,1103.2,756.79,1104.78,756.67,1106.41Z"/><path class="cls-22" d="M759.81,1124.49l-1.62,1.9c-1.14-1.57-2.19-3.94-.49-4.83S760,1122.81,759.81,1124.49Z"/><path class="cls-23" d="M276.47,1327.83c.82-2.19,1.54-4.48,4.61-4.16-.36.91-.73,1.81-1.09,2.72Z"/><path class="cls-24" d="M652.73,1308.56l-43.55-8C626.45,1295.89,640,1299.83,652.73,1308.56Z"/><path class="cls-25" d="M767.66,1644.7c-.3,1.45-.58,3.4-1.91,3.11-1.53-.33-2.78-1.91-4.16-3,1.26-.92,2.41-2.31,3.82-2.66C767.07,1641.79,767,1643.83,767.66,1644.7Z"/><path class="cls-3" d="M1209.94,865.11l-3.41,3a8.58,8.58,0,0,1-1.72-2.41,1.59,1.59,0,0,1,1.75-2.07C1207.54,863.73,1208.47,864.44,1209.94,865.11Z"/><path class="cls-3" d="M1076,916.61c-3.72.9-5.79,1.16-8.09.09C1070.23,915.15,1072.42,915.59,1076,916.61Z"/><path class="cls-26" d="M775.59,1647.12c2-3,3.9-3.15,6.34-2.34C780.4,1646.46,778.54,1646.72,775.59,1647.12Z"/><path class="cls-27" d="M615.34,841.59c-.71.35-1.34.83-1.49.71a6.28,6.28,0,0,1-2.07-2.17c-.34-.91.53-1.41,1.33-.83A17.37,17.37,0,0,1,615.34,841.59Z"/></svg>